<?xml version="1.0" encoding="UTF-8"?>
<svg id="Capa_1" xmlns="http://www.w3.org/2000/svg" version="1.1" viewBox="0 0 841.89 595.28">
  <!-- Generator: Adobe Illustrator 29.3.1, SVG Export Plug-In . SVG Version: 2.1.0 Build 151)  -->
  <defs>
    <style>
      .st0 {
        fill: #fff;
      }

      .st1 {
        fill: #162741;
      }
    </style>
  </defs>
  <rect class="st1" y="292.83" width="841.89" height="302.44"/>
  <g>
    <path class="st1" d="M362.52,86.88c1.4-1.03,3.06-1.78,4.52-2.77,7.43-5.04,14.98-14.9,8.55-23.73-5.22-7.16-16.94-8.38-25.07-7.37-13.05,1.63-32.7,11.53-31.17,27.09.91,9.25,10.35,9.03,15.43,3.35-2.51-1.6-3.1-4.53-2.55-7.3.49-2.49,3.36-6.87,5.1-8.77.55-.6,5.52-5.22,6.06-4.74-1.83,2.25-3.35,4.46-4.54,7.13-4.62,10.39-3.67,21.91-5.14,32.96-.25,1.89-.72,4.08-1.29,5.9-.49,1.53-1.49,4.68-3.49,4.56-.86-.05-1.23-1.71-1.42-2.45-1.65-6.28,1.24-12.99,5.17-17.8-6.06-6.25-19.64-1.78-21.19,6.7-1.74,9.52,7.11,18.03,15.11,21.49,4.34,1.88,11.27,3.38,16.01,3.65,12.4.72,29.9-8.26,33.01-21.06,2.28-9.39-4.15-15.83-13.08-16.86ZM334.86,118.31l-2.01-1.06c1.1-.09,2.35.12,3.42,0,7.64-.86,10.32-6.32,12.38-12.9,1.75-5.57,2.09-11.14,2.37-16.95,3.71,1.75,7.11,4.81,8.08,8.95,3.1,13.22-11.49,26.23-24.24,21.95ZM356.6,82.99c-1.45,1.02-3.79,2.1-4.98,3.29-.1.1-.15.29-.17.43l-.35-.09c-.14-1.18.12-2.39.17-3.51.25-5.47.14-14.77,4.83-18.52.6-.48,1.64-.59,1.76-1.56.04-.32-1.02-1.58-1.31-1.87-.51-.51-1.67-1.11-2-1.48-.18-.19-.13-.3-.12-.54,4.73.18,10.29,2.98,10.87,8.18.73,6.6-3.63,12.1-8.71,15.66Z"/>
    <path class="st1" d="M599.29,156.6c-4.03-.41-6.41,1.19-9.55,3.32.52-2.88-1.85-3.73-4.18-4.16-13.79-2.55-30.43,16.64-30.06,29.88l.7,4.48c-2.46.62-3.59.47-3.32-2.35.41-4.25,3.02-10.16,3.93-14.68.94-4.7,1.68-16.03-4.97-16.99-6.29-.91-12.43,7.86-16.37,11.72.84-3.39.91-7.78-1.93-10.27-2.77-2.43-6.25-1.4-9.14.17-2.45,1.33-4.68,3.27-5.92,5.8,3.04,2.93,2.69,7.56,1.83,11.36-1.67,7.39-8.09,16.59-3.73,24.02,1.9,3.24,6.44,5.42,10.1,5.79-.72-8.25,3.06-16.27,7.06-23.23,1.98-3.46,4.43-7.87,6.63-11.1.41-.6,1.29-1.71,1.71-.48-1.33,8.55-6.24,17.86-4.62,26.74.46,2.5,1.18,5.1,4.07,5.41,6.84.74,11.68-5.29,15.08-10.34,1.87,4.69,4.14,9.22,9.56,10.28,6.2,1.22,10.25-2.73,13.88-7.04.59-.7,1.03-1.53,1.67-2.19,1.29,6.1,5.25,12.13,12.21,8.34,1.71-.93,3.87-3.01,5.18-4.48.57-.63,4.52-5.59,3.95-6.15-2.59.17-4.34-.4-5.69-2.65-5.25-8.76,1.33-21.51,8.34-27.45l.18-.53c-.14-1.37-5.36-3.11-6.62-3.24ZM586.39,165.6c-.23,2.36-4.19,10.44-5.45,12.99-1.45,2.92-5.99,11.35-8.59,12.83-1.39.79-1.9.27-2.08-1.24-.71-5.98,4.83-16.29,8.52-20.94.94-1.19,4.63-5.29,5.99-5.42,1.27-.13,1.72.64,1.61,1.78Z"/>
    <path class="st1" d="M462.68,107.59c-3.6,2.06-4.53.45-4.27-3.21.54-7.6,6.11-21.28,3.7-28.15-.62-1.77-1.97-3.29-3.98-3.23-3.32.12-8.49,5.84-10.71,8.26-2.4,2.62-4.53,5.35-6.58,8.25.75-4.5,4.1-17.58-4.11-16.66-2.22.25-6.63,2.95-8.52,4.3-.69.49-1.27,1.06-1.89,1.62-3.55-1.94-7.08-3.1-11.07-1.58-1.68.64-2.86,1.87-4.44,2.67.84-3.81-4.62-4.55-7.29-4.39-12.34.76-25.23,15.35-26.76,27.14-.82,6.32,2.44,16.8,9.11,18.93,6.78,2.17,11.25-1.9,15.27-6.67.59-.7,1.03-1.53,1.67-2.19.72,3.21,2.38,7.54,5.58,8.99,5.45,2.46,10.97-3.93,13.91-7.76.74,1.22,1.29,2.45,2.28,3.51,2.84,3.04,7.71,3.77,11.68,3.68-3.6-3.9-.86-10.29.8-14.57,2.2-5.7,6.63-14.96,10.97-19.23,1.13-1.11,3.21-2.37,3.34.18.14,2.57-2.78,7.81-3.83,10.4-2.81,6.96-9.88,22.94,4.25,21.64,3.92-.36,8.69-4.18,10.48-7.6.66-1.28,1.63-3.21.4-4.34ZM407.45,85.55c-.23,2.36-4.19,10.44-5.45,12.99-1.45,2.92-5.99,11.35-8.59,12.83-1.39.79-1.9.27-2.08-1.24-.71-5.98,4.83-16.29,8.52-20.94.94-1.19,4.63-5.29,5.99-5.42,1.27-.13,1.72.64,1.61,1.79ZM426.21,90.08c-1.41,5.38-3.85,11.02-4.51,16.55-.12,1.03-.05,2.32-.18,3.34-.03.2.07.35-.26.25-3.06-.91-4.5-5.87-4.66-8.69-.36-6.15,2.97-13.56,7.02-18.08.41-.46,1.58-1.76,2.01-2.03.21-.14.36-.23.62-.16,1.6,2.78.72,5.91-.04,8.81Z"/>
    <path class="st1" d="M332.19,161.18c-3.06-1.77-6.82-2.4-10.18-1.12-1.68.64-2.86,1.87-4.44,2.67.84-3.76-4.49-4.53-7.12-4.4-10.75.55-21.2,11.3-25.1,20.73-2.25,5.45-2.67,10.71-.62,16.32-7.36,1.09-14.69.6-21.69-1.93l-12.2-4.39c6.51-2.04,12.42-6.85,15.25-13.11,2.05-4.54,3.36-9.96,4.51-14.81,1.42-6.04,2.44-15.31,6.75-19.94.58-.62,2.71-1.9,1.93-2.8-.42-.48-2.82-1.74-3.51-1.93-4.4-1.25-9.66,2.76-12.38,5.88-9.74,11.17-7.78,26.93-12.15,39.82-.94,2.78-2.61,3.93-3.82,6.2-.12.22-.07.64-.1.68-.09.09-1.96.17-2.46.27-2.16.43-6.21,1.67-8.02,2.87-2.18,1.44.14,1.4,1.27,1.78,7.3,2.46,12.68,7.41,19.28,10.92,5.17,2.75,13.26,5.2,19.09,4.1,4.83-.91,8.62-4.66,10.53-9.05,3.25,4.67,8.46,6.28,13.76,4.01,2.85-1.22,5.17-3.87,7.13-6.21.59-.7,1.03-1.53,1.67-2.19.98,4.38,3.44,9.92,8.79,9.49,3.23-.26,6.53-3.31,8.6-5.62.57-.64,4.52-5.59,3.95-6.15-2.59.17-4.35-.4-5.69-2.65-5.25-8.76,1.34-21.51,8.34-27.45.59-.78-.75-1.65-1.36-2ZM314.21,168.42c-.23,2.36-4.19,10.44-5.45,12.99-1.45,2.92-5.99,11.35-8.59,12.83-1.39.79-1.9.27-2.07-1.24-.71-5.98,4.83-16.29,8.51-20.94.94-1.19,4.63-5.29,5.99-5.42,1.26-.13,1.72.64,1.61,1.79Z"/>
    <path class="st1" d="M400.85,152.15c1.26-3.24,3.76-11.57-2.52-10.59-6.23.97-10.86,11.83-12.76,17.08-2.55,7.04-5.87,17.63,3.64,20.76.84-2.29,2.01-4.91,3.27-7.01,3.16-5.26,8.42-7.65,14.54-7.01,2.87.3,1.63,1.28.9,2.79-4.68,9.65-3.97,18.93-7.58,28.4-4.03,10.56-17.61,19.09-28.93,18.12-11.2-.96-14.64-15.69-10.78-24.46,3.03-6.89,12.76-10.92,19.11-5.99l-1.85,1.14c-5.07,4.13-9.24,15.15-6.66,21.24,2.26,5.34,7.87,2.81,10.71-.52,4.59-5.4,6.36-14.44,6.59-21.32.02-.51.1-2.62-.18-2.83-1.68.28-3.29,1.01-5.01,1.15-11.18.92-18.89-12.39-17.45-22.36,2.4-16.64,29.38-30.42,43.82-21.56,7.55,4.63,7.33,17.4-1.74,19.74-3.23.83-8.06.84-10.84-1.19,1.86-1.57,2.87-3.34,3.73-5.57Z"/>
    <path class="st1" d="M505.76,95.69c-1.84,9.25-7.82,24.96-14.7,31.48-5.63,5.33-15.37,8.64-23.01,6.67-7.6-1.96-10.05-9.28-6.59-16.07.53-1.03,2.5-4,3.52-4.38.35-.13.25.24.31.39,1.38,3.78,2.73,7.7,7.46,8.35,8.14,1.1,12.53-6.78,14.18-13.47.05-.19.2-.6,0-.71-2.95,2.05-6.4,4.11-9.83,5.27-4.31,1.46-8.64,1.59-10.29-3.42-2.43-7.4,2.48-16.17,5.18-22.93,1.91-4.77,3.99-9.7,2.55-14.92.89-.13,1.85-.45,2.74-.51,5.36-.31,9.71,4.82,10.08,9.89.42,5.62-3.82,14.28-6.18,19.47-.51,1.11-1.96,2.79-1.04,4.03.71.95,2.93-1.01,3.53-1.55,4.67-4.19,7.84-11.45,9.7-17.34,1.47-4.65,2.77-9.41,2.41-14.35.81.07,1.75-.1,2.55,0,2.24.26,6.22,2.19,7.43,4.15,2.49,4.04.92,15.19-.02,19.93Z"/>
    <path class="st1" d="M454.91,160.39c.91-2.41-1.05-3.18-3.06-3.67-2.73-.67-7.81-.2-10.44.89-.3.13-2.07,1.19-2.16,1.09.14-2.04-3.28-2.65-4.85-2.79-7.51-.66-12.88,1.26-17.79,6.91-7.99,9.2-13.26,26.63-5.35,37.29,3.77,5.08,9.85,3.53,14.59.75,2.58-1.51,4.38-3.49,6.2-5.82.95,2.98,2.81,6.68,6.11,7.5,3.12.77,6.34-1.29,8.65-3.2,2.56-2.12,4.91-4.68,6.14-7.81-3.42,1.18-5.95-.17-6.76-3.68-1.55-6.65,1.53-14.36,4.57-20.2,1.15-2.2,3.37-5.16,4.16-7.25ZM431.01,177.92c-1.08,3.01-5.1,13.03-7.47,14.66-2.28,1.57-2.11-1.64-2-3.05.56-7.1,2.89-15.28,6.51-21.41.59-1,3.36-4.96,4.3-5.18,1.37-.32,1.79.67,1.94,1.85.31,2.58-2.3,10.36-3.29,13.12Z"/>
    <path class="st1" d="M495.74,165.22c-2.25,13.42-12.94,28.67-24.54,35.68-5.05,3.05-8.34,4.09-13.24-.08-2.08-1.77-3.22-3.79-3.43-6.57-.83-10.55,10.13-27.2,5.94-36.49-.22-.5-1.01-1.34-.9-1.65.25-.67,2.99-1.86,3.75-2.07,2.2-.63,4.56-1.22,6.33.52,6.38,6.26,2.65,22.36.22,29.91-1,3.1-3.39,7.96-3.8,10.96-.2,1.42.7,1.44,1.7.81,2.97-1.86,7.8-13.86,9.2-17.49,2.13-5.48,4.19-11.46,5.43-17.22.49-2.3,1-4.91.93-7.23.72,0,1.43-.04,2.15.05,1.74.2,7.4,1.58,8.8,2.43,2.33,1.41,1.84,6.17,1.46,8.44Z"/>
    <path class="st1" d="M535.2,108.28c-4.85,6.11-12.68,10.87-20.4,12.26-5.2.93-8.38,1.08-10.1-4.55-1.22-3.99-.35-8.61,2.33-11.82l.26-.08c1.75,2.06,4.71,2.08,7.21,1.93,4-.24,11.47-2.82,14.32-5.7.84-.84,1.57-1.84,1.28-3.05-.86-3.48-6.46-1.97-8.92-1.79-5.16.39-14.9,1.76-14.11-6.39,1.1-11.35,17.17-19.38,27.46-18.54,8.79.72,10.08,11.52,4.83,17.03-1.42-2.27-5.44-3.11-8-2.99-2.05.09-5.68,1.22-7.27,2.57-2.1,1.79-.18,2.51,1.68,2.69,3.36.32,8.28-.86,11.01,1.1,5.71,4.11,1.95,12.9-1.57,17.33Z"/>
    <path class="st1" d="M512.7,177.96c-1.41,4.16-6.27,12.24-4.75,16.42.4,1.1,1.38,1.63,2.07,2.49-3.45,3.03-7.96,7.05-13,5.97-2.05-.44-4.17-3.21-4.65-5.18-2.26-9.23,8.4-21.74,8.34-30.99,0-1.5-1.13-3.06-2.45-3.69.7-1.54,6.05-2.73,7.66-2.88,1.5-.13,5.89-.04,7.03.91.33.27.91,1.39,1.07,1.83,1.34,3.67-.05,11.37-1.32,15.11Z"/>
    <path class="st1" d="M521.09,139.82c-.08,3.3-4.34,12.35-6.77,14.65-1.87,1.77-6.83,2.38-8.86.79-.9-.71-.99-2.59-1.06-3.68-.18-2.95-.51-8.76.57-11.37,1.01-2.45,6.5-4.89,9.05-5.17,3.33-.38,7.17.81,7.07,4.79Z"/>
  </g>
  <g>
    <path class="st0" d="M369.5,384.88c1.4-1.03,3.06-1.78,4.52-2.77,7.43-5.04,14.98-14.9,8.55-23.73-5.22-7.16-16.94-8.38-25.07-7.37-13.05,1.63-32.7,11.53-31.17,27.09.91,9.25,10.35,9.03,15.43,3.35-2.51-1.6-3.1-4.53-2.55-7.3.49-2.49,3.36-6.87,5.1-8.77.55-.6,5.52-5.22,6.06-4.74-1.83,2.25-3.35,4.46-4.54,7.13-4.62,10.39-3.67,21.91-5.14,32.96-.25,1.89-.72,4.08-1.29,5.9-.49,1.53-1.49,4.68-3.49,4.56-.86-.05-1.23-1.71-1.42-2.45-1.65-6.28,1.24-12.99,5.17-17.8-6.06-6.25-19.64-1.78-21.19,6.7-1.74,9.52,7.11,18.03,15.11,21.49,4.34,1.88,11.27,3.38,16.01,3.65,12.4.72,29.9-8.26,33.01-21.06,2.28-9.39-4.15-15.83-13.08-16.86ZM341.83,416.31l-2.01-1.06c1.1-.09,2.35.12,3.42,0,7.64-.86,10.32-6.32,12.38-12.9,1.75-5.57,2.09-11.14,2.37-16.95,3.71,1.75,7.11,4.81,8.08,8.95,3.1,13.22-11.49,26.23-24.24,21.95ZM363.58,380.99c-1.45,1.02-3.79,2.1-4.98,3.29-.1.1-.15.29-.17.43l-.35-.09c-.14-1.18.12-2.39.17-3.51.25-5.47.14-14.77,4.83-18.52.6-.48,1.64-.59,1.76-1.56.04-.32-1.02-1.58-1.31-1.87-.51-.51-1.67-1.11-2-1.48-.18-.19-.13-.3-.12-.54,4.73.18,10.29,2.98,10.87,8.18.73,6.6-3.63,12.1-8.71,15.66Z"/>
    <path class="st0" d="M606.27,454.6c-4.03-.41-6.41,1.19-9.55,3.32.52-2.88-1.85-3.73-4.18-4.16-13.79-2.55-30.43,16.64-30.06,29.88l.7,4.48c-2.46.62-3.59.47-3.32-2.35.41-4.25,3.02-10.16,3.93-14.68.94-4.7,1.68-16.03-4.97-16.99-6.29-.91-12.43,7.86-16.37,11.72.84-3.39.91-7.78-1.93-10.27-2.77-2.43-6.25-1.4-9.14.17-2.45,1.33-4.68,3.27-5.92,5.8,3.04,2.93,2.69,7.56,1.83,11.36-1.67,7.39-8.09,16.59-3.73,24.02,1.9,3.24,6.44,5.42,10.1,5.79-.72-8.25,3.06-16.27,7.06-23.23,1.98-3.46,4.43-7.87,6.63-11.1.41-.6,1.29-1.71,1.71-.48-1.33,8.55-6.24,17.86-4.62,26.74.46,2.5,1.18,5.1,4.07,5.41,6.84.74,11.68-5.29,15.08-10.34,1.87,4.69,4.14,9.22,9.56,10.28,6.2,1.22,10.25-2.73,13.88-7.04.59-.7,1.03-1.53,1.67-2.19,1.29,6.1,5.25,12.13,12.21,8.34,1.71-.93,3.87-3.01,5.18-4.48.57-.63,4.52-5.59,3.95-6.15-2.59.17-4.34-.4-5.69-2.65-5.25-8.76,1.33-21.51,8.34-27.45l.18-.53c-.14-1.37-5.36-3.11-6.62-3.24ZM593.37,463.6c-.23,2.36-4.19,10.44-5.45,12.99-1.45,2.92-5.99,11.35-8.59,12.83-1.39.79-1.9.27-2.08-1.24-.71-5.98,4.83-16.29,8.52-20.94.94-1.19,4.63-5.29,5.99-5.42,1.27-.13,1.72.64,1.61,1.78Z"/>
    <path class="st0" d="M469.66,405.59c-3.6,2.06-4.53.45-4.27-3.21.54-7.6,6.11-21.28,3.7-28.15-.62-1.77-1.97-3.29-3.98-3.23-3.32.12-8.49,5.84-10.71,8.26-2.4,2.62-4.53,5.35-6.58,8.25.75-4.5,4.1-17.58-4.11-16.66-2.22.25-6.63,2.95-8.52,4.3-.69.49-1.27,1.06-1.89,1.62-3.55-1.94-7.08-3.1-11.07-1.58-1.68.64-2.86,1.87-4.44,2.67.84-3.81-4.62-4.55-7.29-4.39-12.34.76-25.23,15.35-26.76,27.14-.82,6.32,2.44,16.8,9.11,18.93,6.78,2.17,11.25-1.9,15.27-6.67.59-.7,1.03-1.53,1.67-2.19.72,3.21,2.38,7.54,5.58,8.99,5.45,2.46,10.97-3.93,13.91-7.76.74,1.22,1.29,2.45,2.28,3.51,2.84,3.04,7.71,3.77,11.68,3.68-3.6-3.9-.86-10.29.8-14.57,2.2-5.7,6.63-14.96,10.97-19.23,1.13-1.11,3.21-2.37,3.34.18.14,2.57-2.78,7.81-3.83,10.4-2.81,6.96-9.88,22.94,4.25,21.64,3.92-.36,8.69-4.18,10.48-7.6.66-1.28,1.63-3.21.4-4.34ZM414.43,383.55c-.23,2.36-4.19,10.44-5.45,12.99-1.45,2.92-5.99,11.35-8.59,12.83-1.39.79-1.9.27-2.08-1.24-.71-5.98,4.83-16.29,8.52-20.94.94-1.19,4.63-5.29,5.99-5.42,1.27-.13,1.72.64,1.61,1.79ZM433.19,388.08c-1.41,5.38-3.85,11.02-4.51,16.55-.12,1.03-.05,2.32-.18,3.34-.03.2.07.35-.26.25-3.06-.91-4.5-5.87-4.66-8.69-.36-6.15,2.97-13.56,7.02-18.08.41-.46,1.58-1.76,2.01-2.03.21-.14.36-.23.62-.16,1.6,2.78.72,5.91-.04,8.81Z"/>
    <path class="st0" d="M339.17,459.18c-3.06-1.77-6.82-2.4-10.18-1.12-1.68.64-2.86,1.87-4.44,2.67.84-3.76-4.49-4.53-7.12-4.4-10.75.55-21.2,11.3-25.1,20.73-2.25,5.45-2.67,10.71-.62,16.32-7.36,1.09-14.69.6-21.69-1.93l-12.2-4.39c6.51-2.04,12.42-6.85,15.25-13.11,2.05-4.54,3.36-9.96,4.51-14.81,1.42-6.04,2.44-15.31,6.75-19.94.58-.62,2.71-1.9,1.93-2.8-.42-.48-2.82-1.74-3.51-1.93-4.4-1.25-9.66,2.76-12.38,5.88-9.74,11.17-7.78,26.93-12.15,39.82-.94,2.78-2.61,3.93-3.82,6.2-.12.22-.07.64-.1.68-.09.09-1.96.17-2.46.27-2.16.43-6.21,1.67-8.02,2.87-2.18,1.44.14,1.4,1.27,1.78,7.3,2.46,12.68,7.41,19.28,10.92,5.17,2.75,13.26,5.2,19.09,4.1,4.83-.91,8.62-4.66,10.53-9.05,3.25,4.67,8.46,6.28,13.76,4.01,2.85-1.22,5.17-3.87,7.13-6.21.59-.7,1.03-1.53,1.67-2.19.98,4.38,3.44,9.92,8.79,9.49,3.23-.26,6.53-3.31,8.6-5.62.57-.64,4.52-5.59,3.95-6.15-2.59.17-4.35-.4-5.69-2.65-5.25-8.76,1.34-21.51,8.34-27.45.59-.78-.75-1.65-1.36-2ZM321.19,466.42c-.23,2.36-4.19,10.44-5.45,12.99-1.45,2.92-5.99,11.35-8.59,12.83-1.39.79-1.9.27-2.07-1.24-.71-5.98,4.83-16.29,8.51-20.94.94-1.19,4.63-5.29,5.99-5.42,1.26-.13,1.72.64,1.61,1.79Z"/>
    <path class="st0" d="M407.82,450.15c1.26-3.24,3.76-11.57-2.52-10.59-6.23.97-10.86,11.83-12.76,17.08-2.55,7.04-5.87,17.63,3.64,20.76.84-2.29,2.01-4.91,3.27-7.01,3.16-5.26,8.42-7.65,14.54-7.01,2.87.3,1.63,1.28.9,2.79-4.68,9.65-3.97,18.93-7.58,28.4-4.03,10.56-17.61,19.09-28.93,18.12-11.2-.96-14.64-15.69-10.78-24.46,3.03-6.89,12.76-10.92,19.11-5.99l-1.85,1.14c-5.07,4.13-9.24,15.15-6.66,21.24,2.26,5.34,7.87,2.81,10.71-.52,4.59-5.4,6.36-14.44,6.59-21.32.02-.51.1-2.62-.18-2.83-1.68.28-3.29,1.01-5.01,1.15-11.18.92-18.89-12.39-17.45-22.36,2.4-16.64,29.38-30.42,43.82-21.56,7.55,4.63,7.33,17.4-1.74,19.74-3.23.83-8.06.84-10.84-1.19,1.86-1.57,2.87-3.34,3.73-5.57Z"/>
    <path class="st0" d="M512.73,393.69c-1.84,9.25-7.82,24.96-14.7,31.48-5.63,5.33-15.37,8.64-23.01,6.67-7.6-1.96-10.05-9.28-6.59-16.07.53-1.03,2.5-4,3.52-4.38.35-.13.25.24.31.39,1.38,3.78,2.73,7.7,7.46,8.35,8.14,1.1,12.53-6.78,14.18-13.47.05-.19.2-.6,0-.71-2.95,2.05-6.4,4.11-9.83,5.27-4.31,1.46-8.64,1.59-10.29-3.42-2.43-7.4,2.48-16.17,5.18-22.93,1.91-4.77,3.99-9.7,2.55-14.92.89-.13,1.85-.45,2.74-.51,5.36-.31,9.71,4.82,10.08,9.89.42,5.62-3.82,14.28-6.18,19.47-.51,1.11-1.96,2.79-1.04,4.03.71.95,2.93-1.01,3.53-1.55,4.67-4.19,7.84-11.45,9.7-17.34,1.47-4.65,2.77-9.41,2.41-14.35.81.07,1.75-.1,2.55,0,2.24.26,6.22,2.19,7.43,4.15,2.49,4.04.92,15.19-.02,19.93Z"/>
    <path class="st0" d="M461.89,458.39c.91-2.41-1.05-3.18-3.06-3.67-2.73-.67-7.81-.2-10.44.89-.3.13-2.07,1.19-2.16,1.09.14-2.04-3.28-2.65-4.85-2.79-7.51-.66-12.88,1.26-17.79,6.91-7.99,9.2-13.26,26.63-5.35,37.29,3.77,5.08,9.85,3.53,14.59.75,2.58-1.51,4.38-3.49,6.2-5.82.95,2.98,2.81,6.68,6.11,7.5,3.12.77,6.34-1.29,8.65-3.2,2.56-2.12,4.91-4.68,6.14-7.81-3.42,1.18-5.95-.17-6.76-3.68-1.55-6.65,1.53-14.36,4.57-20.2,1.15-2.2,3.37-5.16,4.16-7.25ZM437.98,475.92c-1.08,3.01-5.1,13.03-7.47,14.66-2.28,1.57-2.11-1.64-2-3.05.56-7.1,2.89-15.28,6.51-21.41.59-1,3.36-4.96,4.3-5.18,1.37-.32,1.79.67,1.94,1.85.31,2.58-2.3,10.36-3.29,13.12Z"/>
    <path class="st0" d="M502.72,463.22c-2.25,13.42-12.94,28.67-24.54,35.68-5.05,3.05-8.34,4.09-13.24-.08-2.08-1.77-3.22-3.79-3.43-6.57-.83-10.55,10.13-27.2,5.94-36.49-.22-.5-1.01-1.34-.9-1.65.25-.67,2.99-1.86,3.75-2.07,2.2-.63,4.56-1.22,6.33.52,6.38,6.26,2.65,22.36.22,29.91-1,3.1-3.39,7.96-3.8,10.96-.2,1.42.7,1.44,1.7.81,2.97-1.86,7.8-13.86,9.2-17.49,2.13-5.48,4.19-11.46,5.43-17.22.49-2.3,1-4.91.93-7.23.72,0,1.43-.04,2.15.05,1.74.2,7.4,1.58,8.8,2.43,2.33,1.41,1.84,6.17,1.46,8.44Z"/>
    <path class="st0" d="M542.18,406.28c-4.85,6.11-12.68,10.87-20.4,12.26-5.2.93-8.38,1.08-10.1-4.55-1.22-3.99-.35-8.61,2.33-11.82l.26-.08c1.75,2.06,4.71,2.08,7.21,1.93,4-.24,11.47-2.82,14.32-5.7.84-.84,1.57-1.84,1.28-3.05-.86-3.48-6.46-1.97-8.92-1.79-5.16.39-14.9,1.76-14.11-6.39,1.1-11.35,17.17-19.38,27.46-18.54,8.79.72,10.08,11.52,4.83,17.03-1.42-2.27-5.44-3.11-8-2.99-2.05.09-5.68,1.22-7.27,2.57-2.1,1.79-.18,2.51,1.68,2.69,3.36.32,8.28-.86,11.01,1.1,5.71,4.11,1.95,12.9-1.57,17.33Z"/>
    <path class="st0" d="M519.68,475.96c-1.41,4.16-6.27,12.24-4.75,16.42.4,1.1,1.38,1.63,2.07,2.49-3.45,3.03-7.96,7.05-13,5.97-2.05-.44-4.17-3.21-4.65-5.18-2.26-9.23,8.4-21.74,8.34-30.99,0-1.5-1.13-3.06-2.45-3.69.7-1.54,6.05-2.73,7.66-2.88,1.5-.13,5.89-.04,7.03.91.33.27.91,1.39,1.07,1.83,1.34,3.67-.05,11.37-1.32,15.11Z"/>
    <path class="st0" d="M528.07,437.82c-.08,3.3-4.34,12.35-6.77,14.65-1.87,1.77-6.83,2.38-8.86.79-.9-.71-.99-2.59-1.06-3.68-.18-2.95-.51-8.76.57-11.37,1.01-2.45,6.5-4.89,9.05-5.17,3.33-.38,7.17.81,7.07,4.79Z"/>
  </g>
</svg>